<svg width="15" height="15" viewBox="0 0 15 15" fill="none" xmlns="http://www.w3.org/2000/svg">
<path d="M7.58789 2.86426C7.58789 3.10352 7.56738 3.38721 7.52637 3.71533C7.49219 4.03662 7.42725 4.37158 7.33154 4.72021C7.23584 5.06201 7.10254 5.40039 6.93164 5.73535C6.76074 6.07031 6.54199 6.37109 6.27539 6.6377C6.00879 6.9043 5.6875 7.11963 5.31152 7.28369C4.93555 7.44092 4.49463 7.51953 3.98877 7.51953C3.59912 7.51953 3.25732 7.46826 2.96338 7.36572C2.66943 7.26318 2.42676 7.11621 2.23535 6.9248C2.04395 6.7334 1.90039 6.49756 1.80469 6.21729C1.70898 5.93018 1.66113 5.60205 1.66113 5.23291C1.66113 4.97314 1.67822 4.67578 1.7124 4.34082C1.75342 4.00586 1.8252 3.66748 1.92773 3.32568C2.03027 2.97705 2.16699 2.63867 2.33789 2.31055C2.50879 1.98242 2.72412 1.69189 2.98389 1.43896C3.25049 1.18604 3.56836 0.980957 3.9375 0.82373C4.30664 0.659668 4.7373 0.577637 5.22949 0.577637C5.66699 0.577637 6.03613 0.635742 6.33691 0.751953C6.64453 0.868164 6.89062 1.02881 7.0752 1.23389C7.25977 1.43213 7.38965 1.67139 7.46484 1.95166C7.54688 2.23193 7.58789 2.53613 7.58789 2.86426ZM6.15234 2.93604C6.15234 2.53955 6.07373 2.23877 5.9165 2.03369C5.76611 1.82178 5.48584 1.71582 5.07568 1.71582C4.80225 1.71582 4.56299 1.78418 4.35791 1.9209C4.15283 2.05078 3.9751 2.22168 3.82471 2.43359C3.68115 2.64551 3.56152 2.88135 3.46582 3.14111C3.37012 3.40088 3.29492 3.65723 3.24023 3.91016C3.18555 4.16309 3.14795 4.40234 3.12744 4.62793C3.10693 4.84668 3.09668 5.02441 3.09668 5.16113C3.09668 5.59863 3.18213 5.91309 3.35303 6.10449C3.52393 6.28906 3.79395 6.38135 4.16309 6.38135C4.43652 6.38135 4.67578 6.31641 4.88086 6.18652C5.09277 6.05664 5.27051 5.88916 5.41406 5.68408C5.56445 5.479 5.68408 5.25 5.77295 4.99707C5.86865 4.7373 5.94385 4.47754 5.99854 4.21777C6.05322 3.95801 6.09082 3.71875 6.11133 3.5C6.13867 3.27441 6.15234 3.08643 6.15234 2.93604ZM14.0889 9.49854C14.0889 9.73779 14.0684 10.0215 14.0273 10.3496C13.9932 10.6709 13.9282 11.0059 13.8325 11.3545C13.7368 11.6963 13.6035 12.0347 13.4326 12.3696C13.2617 12.7046 13.043 13.0054 12.7764 13.272C12.5098 13.5386 12.1885 13.7539 11.8125 13.918C11.4365 14.0752 10.9956 14.1538 10.4897 14.1538C10.1001 14.1538 9.7583 14.1025 9.46436 14C9.17041 13.8975 8.92773 13.7505 8.73633 13.5591C8.54492 13.3677 8.40137 13.1318 8.30566 12.8516C8.20996 12.5645 8.16211 12.2363 8.16211 11.8672C8.16211 11.6074 8.1792 11.3101 8.21338 10.9751C8.25439 10.6401 8.32617 10.3018 8.42871 9.95996C8.53125 9.61133 8.66797 9.27295 8.83887 8.94482C9.00977 8.6167 9.2251 8.32617 9.48486 8.07324C9.75146 7.82031 10.0693 7.61523 10.4385 7.45801C10.8076 7.29395 11.2383 7.21191 11.7305 7.21191C12.168 7.21191 12.5371 7.27002 12.8379 7.38623C13.1455 7.50244 13.3916 7.66309 13.5762 7.86816C13.7607 8.06641 13.8906 8.30566 13.9658 8.58594C14.0479 8.86621 14.0889 9.17041 14.0889 9.49854ZM12.6533 9.57031C12.6533 9.17383 12.5747 8.87305 12.4175 8.66797C12.2671 8.45605 11.9868 8.3501 11.5767 8.3501C11.3032 8.3501 11.064 8.41846 10.8589 8.55518C10.6538 8.68506 10.4761 8.85596 10.3257 9.06787C10.1821 9.27979 10.0625 9.51562 9.9668 9.77539C9.87109 10.0352 9.7959 10.2915 9.74121 10.5444C9.68652 10.7974 9.64893 11.0366 9.62842 11.2622C9.60791 11.481 9.59766 11.6587 9.59766 11.7954C9.59766 12.2329 9.68311 12.5474 9.854 12.7388C10.0249 12.9233 10.2949 13.0156 10.6641 13.0156C10.9375 13.0156 11.1768 12.9507 11.3818 12.8208C11.5938 12.6909 11.7715 12.5234 11.915 12.3184C12.0654 12.1133 12.1851 11.8843 12.2739 11.6313C12.3696 11.3716 12.4448 11.1118 12.4995 10.8521C12.5542 10.5923 12.5918 10.353 12.6123 10.1343C12.6396 9.90869 12.6533 9.7207 12.6533 9.57031ZM2.60449 14.082C2.55664 14.1436 2.50537 14.188 2.45068 14.2153C2.396 14.2495 2.32764 14.2769 2.24561 14.2974C2.17041 14.3247 2.08154 14.3418 1.979 14.3486C1.8833 14.3623 1.76709 14.3691 1.63037 14.3691C1.32959 14.3691 1.14844 14.3179 1.08691 14.2153C1.02539 14.1196 1.06641 13.9932 1.20996 13.8359L13.084 0.618652C13.1387 0.563965 13.1934 0.519531 13.248 0.485352C13.3027 0.444336 13.3677 0.413574 13.4429 0.393066C13.5181 0.372559 13.6035 0.358887 13.6992 0.352051C13.8018 0.338379 13.9214 0.331543 14.0581 0.331543C14.2085 0.331543 14.3281 0.345215 14.417 0.372559C14.5127 0.393066 14.5742 0.427246 14.6016 0.475098C14.6357 0.522949 14.6426 0.581055 14.6221 0.649414C14.6016 0.717773 14.5537 0.789551 14.4785 0.864746L2.60449 14.082Z" fill="#2F3035"/>
</svg>
